<svg xmlns="http://www.w3.org/2000/svg" version="1.1" xmlns:xlink="http://www.w3.org/1999/xlink" width="1000" height="1000"><g clip-path="url(#SvgjsClipPath1003)"><rect width="1000" height="1000" fill="#ffffff"></rect><g transform="matrix(3.5,0,0,3.5,150,150)"><svg xmlns="http://www.w3.org/2000/svg" version="1.1" xmlns:xlink="http://www.w3.org/1999/xlink" width="200" height="200"><svg xmlns="http://www.w3.org/2000/svg" version="1.1" xmlns:xlink="http://www.w3.org/1999/xlink" viewBox="0 0 200 200"><rect width="200" height="200" fill="url('#gradient')"></rect><defs><linearGradient id="gradient" gradientTransform="rotate(45 0.5 0.5)"><stop offset="0%" stop-color="#8bff6b"></stop><stop offset="100%" stop-color="#54c9bb"></stop></linearGradient><clipPath id="SvgjsClipPath1003"><rect width="1000" height="1000" x="0" y="0" rx="350" ry="350"></rect></clipPath></defs><g><g fill="#010102" transform="matrix(2.9448793737018693,0,0,2.9448793737018693,8.0163401287858,121.79445130087198)" stroke="#aaeeea" stroke-width="0.55"><path d="M9.17-4.81L12.58-4.81Q12.51-3.33 11.78-2.19Q11.04-1.05 9.72-0.43Q8.40 0.20 6.70 0.20L6.70 0.20Q3.90 0.20 2.29-1.63Q0.67-3.46 0.67-6.79L0.67-6.79L0.67-7.49Q0.67-9.58 1.40-11.15Q2.13-12.71 3.50-13.57Q4.86-14.42 6.66-14.42L6.66-14.42Q9.25-14.42 10.82-13.06Q12.39-11.70 12.61-9.31L12.61-9.31L9.19-9.31Q9.15-10.61 8.54-11.17Q7.92-11.74 6.66-11.74L6.66-11.74Q5.38-11.74 4.79-10.78Q4.19-9.82 4.16-7.72L4.16-7.72L4.16-6.72Q4.16-4.44 4.73-3.47Q5.30-2.49 6.70-2.49L6.70-2.49Q7.88-2.49 8.51-3.05Q9.13-3.60 9.17-4.81L9.17-4.81ZM17.27-15L17.27-9.43Q18.32-10.76 19.96-10.76L19.96-10.76Q21.71-10.76 22.60-9.73Q23.49-8.69 23.51-6.67L23.51-6.67L23.51 0L20.21 0L20.21-6.59Q20.21-7.43 19.86-7.83Q19.52-8.22 18.70-8.22L18.70-8.22Q17.69-8.22 17.27-7.58L17.27-7.58L17.27 0L13.97 0L13.97-15L17.27-15ZM34.58 0L31.29 0Q31.11-0.32 30.98-0.95L30.98-0.95Q30.07 0.20 28.44 0.20L28.44 0.20Q26.94 0.20 25.90-0.71Q24.85-1.61 24.85-2.98L24.85-2.98Q24.85-4.70 26.12-5.58Q27.39-6.46 29.81-6.46L29.81-6.46L30.83-6.46L30.83-7.01Q30.83-8.47 29.57-8.47L29.57-8.47Q28.40-8.47 28.40-7.31L28.40-7.31L25.11-7.31Q25.11-8.85 26.41-9.80Q27.71-10.76 29.74-10.76Q31.76-10.76 32.93-9.78Q34.10-8.79 34.13-7.07L34.13-7.07L34.13-2.39Q34.15-0.94 34.58-0.17L34.58-0.17L34.58 0ZM29.23-2.15L29.23-2.15Q29.84-2.15 30.25-2.41Q30.65-2.68 30.83-3.01L30.83-3.01L30.83-4.70L29.87-4.70Q28.15-4.70 28.15-3.15L28.15-3.15Q28.15-2.71 28.46-2.43Q28.76-2.15 29.23-2.15ZM42.40-10.64L42.34-7.59L41.26-7.67Q39.71-7.67 39.27-6.69L39.27-6.69L39.27 0L35.98 0L35.98-10.57L39.06-10.57L39.17-9.21Q40-10.76 41.48-10.76L41.48-10.76Q42.01-10.76 42.40-10.64L42.40-10.64ZM44.56-13.19L47.85-13.19L47.85-10.57L49.59-10.57L49.59-8.28L47.85-8.28L47.85-3.45Q47.85-2.85 48.07-2.62Q48.28-2.38 48.92-2.38L48.92-2.38Q49.40-2.38 49.74-2.44L49.74-2.44L49.74-0.09Q48.85 0.20 47.88 0.20L47.88 0.20Q46.18 0.20 45.37-0.61Q44.56-1.41 44.56-3.04L44.56-3.04L44.56-8.28L43.21-8.28L43.21-10.57L44.56-10.57L44.56-13.19ZM58.37-3.78L58.37-3.78Q58.37-4.53 57.84-4.95Q57.30-5.37 55.97-5.82Q54.63-6.27 53.78-6.69L53.78-6.69Q51.02-8.05 51.02-10.42L51.02-10.42Q51.02-11.60 51.70-12.50Q52.39-13.41 53.65-13.91Q54.91-14.41 56.48-14.41L56.48-14.41Q58.02-14.41 59.23-13.87Q60.45-13.32 61.12-12.31Q61.80-11.30 61.80-10L61.80-10L58.38-10Q58.38-10.87 57.85-11.35Q57.31-11.83 56.41-11.83L56.41-11.83Q55.49-11.83 54.96-11.42Q54.42-11.02 54.42-10.39L54.42-10.39Q54.42-9.84 55.01-9.40Q55.60-8.96 57.07-8.48Q58.54-8.01 59.49-7.46L59.49-7.46Q61.80-6.13 61.80-3.80L61.80-3.80Q61.80-1.93 60.39-0.87Q58.98 0.20 56.53 0.20L56.53 0.20Q54.80 0.20 53.40-0.42Q52.00-1.04 51.29-2.12Q50.59-3.20 50.59-4.61L50.59-4.61L54.02-4.61Q54.02-3.47 54.61-2.92Q55.21-2.38 56.53-2.38L56.53-2.38Q57.38-2.38 57.88-2.75Q58.37-3.12 58.37-3.78Z"></path></g></g></svg></svg></g></g></svg>