<?xml version="1.0" encoding="UTF-8" standalone="no"?>
<svg
   width="1024"
   height="1024"
   viewBox="0 0 1024 1024"
   version="1.1"
   id="svg39"
   sodipodi:docname="logo.svg"
   inkscape:version="1.2.2 (b0a8486541, 2022-12-01)"
   xmlns:inkscape="http://www.inkscape.org/namespaces/inkscape"
   xmlns:sodipodi="http://sodipodi.sourceforge.net/DTD/sodipodi-0.dtd"
   xmlns="http://www.w3.org/2000/svg"
   xmlns:svg="http://www.w3.org/2000/svg">
  <sodipodi:namedview
     id="namedview39"
     pagecolor="#ffffff"
     bordercolor="#000000"
     borderopacity="0.25"
     inkscape:showpageshadow="2"
     inkscape:pageopacity="0.0"
     inkscape:pagecheckerboard="0"
     inkscape:deskcolor="#d1d1d1"
     inkscape:zoom="1.4521515"
     inkscape:cx="416.27887"
     inkscape:cy="596.3565"
     inkscape:window-width="3840"
     inkscape:window-height="2077"
     inkscape:window-x="1440"
     inkscape:window-y="189"
     inkscape:window-maximized="1"
     inkscape:current-layer="svg39"
     showgrid="false" />
  <path
     fill="#0612dd"
     d="M 590.89784,280.35575 C 607.15692,273.77255 622.068,267.561 638.926,267.113 l -33.228,102.192 c -30.966,94.066 -64.289,186.557 -117.389,270.938 -56.158,89.244 -129.084,148.303 -234.384,166.518 -0.885,-1.132 -1.253,-1.137 -1.989,-2.488 35.382,-15.601 68.234,-36.403 97.467,-61.715 78.56,-69.407 123.386,-173.702 159.477,-270.036 10.361,-27.657 19.114,-55.851 28.476,-83.86 l 15.788,-47.237 c 5.523,-16.818 9.15872,-34.57252 19.80772,-48.42152 4.74149,-8.37374 11.07611,-9.69792 17.94612,-12.64773 z"
     id="path1"
     sodipodi:nodetypes="cccccccccccc" />
  <path
     fill="#64c0c2"
     d="m 722.18,328.217 c 0.044,0.947 -5.268,7.139 -6.387,8.717 -8.654,12.236 -16.2,25.218 -22.549,38.794 -10.682,23.347 -18.595,45.699 -26.608,70.061 -27.514,83.649 -70.83,170.551 -130.35,235.926 -6.313,6.906 -12.805,13.646 -19.468,20.213 -4.11,3.999 -9.04,8.302 -12.89,12.419 -3.231,2.948 -7.545,7.239 -10.759,9.983 -10.491,7.311 -20.687,16.911 -31.67,24.716 -34.614,24.598 -85.362,51.8 -126.537,62.708 2.859,-2.109 9.299,-4.889 12.671,-6.549 41.901,-20.631 81.536,-46.898 114.409,-80.254 4.264,-4.328 9.077,-8.746 13.128,-13.295 3.37,-3.854 7.357,-9.88 11.219,-13.078 1.946,-2.044 3.737,-4.764 5.549,-6.951 51.057,-61.638 86.385,-133.869 114.744,-208.271 6.746,-17.698 14.242,-36.539 20.246,-54.739 6.731,-18.751 11.651,-34.221 22.999,-51.229 9.364,-13.155 17.17,-21.661 30.519,-31.142 1.622,-0.992 3.173,-2.078 4.776,-3.036 6.13334,-3.67436 11.15873,-5.86842 17.67,-8.804 4.444,-1.54 8.165,-3.297 12.91,-4.739 2.40655,-0.72644 4.68967,-1.62277 6.378,-1.45 z"
     id="path3"
     sodipodi:nodetypes="ccccccccccccccccccccccc" />
  <path
     fill="#64c0c2"
     d="m 691.443,489.565 c 13.42,-22.524 42.924,-58.506 65.182,-72.269 -9.092,15.764 -18.234,31.544 -25.892,48.114 -12.506,27.056 -23.321,55.023 -36.034,81.956 -6.246,12.999 -14.85,24.665 -22.474,36.833 -28.034,44.749 -60.529,87.642 -98.752,124.206 -5.921,5.664 -41.17905,32.67831 -46.18456,37.51554 -2.299,-1.317 -3.70968,-1.68989 -5.79068,-3.31189 1.257,-1.985 23.72424,-22.74565 26.24424,-25.18965 7.368,-7.066 14.41,-14.465 21.103,-22.174 36.117,-41.985 63.227,-84.28 88.328,-133.565 4.383,-8.607 12.538,-23.489 15.46,-32.103 -4.064,-9.824 -8.721,-23.069 -12.024,-33.23 1.509,-5.356 5.147,-13.954 7.264,-19.335 3.736,-9.467 7.374,-18.973 10.912,-28.515 4.432,13.58 7.856,27.502 12.658,41.068 z"
     id="path7"
     sodipodi:nodetypes="cccccscccccccccc" />
  <path
     fill="#0612DD"
     d="M678.785 448.497C683.217 462.077 686.641 475.999 691.443 489.565C688.882 495.892 684.212 504.303 681.233 510.837C679.411 514.831 674.589 526.325 672.633 529.577C668.569 519.753 663.912 506.508 660.609 496.347C662.118 490.991 665.756 482.393 667.873 477.012C671.609 467.545 675.247 458.039 678.785 448.497Z"
     id="path8" />
  <path
     fill="#64c0c2"
     d="m 579.812,281.626 c 25.103,-26.793 47.651,-43.348 79.585,-61.961 6.512,-3.796 16.915,-10.013 23.704,-12.919 5.721,17.887 10.761,36.273 16.21,54.277 l 18.882,60.573 c -8.00236,2.19344 -21.15001,5.09234 -47.91049,21.94636 -1.257,-3.337 -5.68651,-14.23236 -6.89651,-17.68736 -7.597,-21.685 -14.56248,-43.56174 -19.60848,-65.99274 -13.75126,0.0226 -34.4728,6.30041 -47.5325,12.81678 -7.48332,3.73394 -9.61179,4.48844 -14.05502,8.69194 l -8.063,7.00802 c 1.703,-2.406 3.605,-4.665 5.685,-6.753 z"
     id="path9"
     sodipodi:nodetypes="ccccccccsccc" />
  <path
     fill="#0612DD"
     d="M748.286 456.99C755.284 479.013 761.666 499.491 770.024 521.235C801.579 605.362 850.237 682.033 912.925 746.402C930.406 764.396 949.347 782.837 968.827 798.668L967.374 800.139C947.235 785.144 929.334 771.321 910.477 754.523C845.194 696.209 792.522 625.164 755.696 545.753C747.678 528.495 739.039 510.43 732.958 492.442C738.287 480.694 742.997 468.469 748.286 456.99Z"
     id="path11" />
  <path
     fill="#0612DD"
     d="M693.71 571.784C699.835 561.489 704.984 549.175 709.937 538.152C712.715 545.193 715.068 552.407 718.059 559.382C739.118 608.483 765.587 654.184 798.089 696.558C831.051 739.532 869.623 774.783 912.798 807.167L911.476 808.54C819.34 750.133 744.227 668.471 693.71 571.784Z"
     id="path12" />
  <path
     fill="#0612DD"
     d="M630.745 309.459C631.881 309.79 631.962 309.78 633.135 309.888C635.275 326.087 643.841 362.452 649.927 377.388C638.579 394.396 633.659 409.866 626.928 428.617C623.604 417.932 610.433 377.516 613.006 368.544C618.216 350.373 624.969 327.687 630.745 309.459Z"
     id="path13" />
  <path
     fill="#64c0c2"
     d="m 521.77568,742.25121 c 1.939,1.072 3.69232,2.44279 5.55432,3.63979 -3.087,3.398 -10.318,8.342 -14.262,11.1 -21.683,14.969 -44.402,28.379 -67.985,40.129 l -0.847,-0.732 c 17.478,-9.325 36.791,-22.478 52.641,-34.367 8.259,-6.196 16.49668,-13.45679 24.89868,-19.76979 z"
     id="path18"
     sodipodi:nodetypes="ccccccc" />
  <defs
     id="defs19">
    <linearGradient
       id="gradient_0"
       gradientUnits="userSpaceOnUse"
       x1="669.99365"
       y1="327.79065"
       x2="686.02728"
       y2="327.7066">
      <stop
         offset="0"
         stop-color="#FFFFFE"
         stop-opacity="0.33725491"
         id="stop18" />
      <stop
         offset="1"
         stop-color="#FEFDFC"
         stop-opacity="0.47450981"
         id="stop19" />
    </linearGradient>
  </defs>
  <path
     fill="#484dbb"
     fill-opacity="0.972549"
     d="m 912.798,807.167 c 3.69551,2.48823 6.89133,5.09823 10.568,7.886 l -0.977,0.563 c -3.538,-2.367 -7.514,-4.62 -10.913,-7.076 z"
     id="path26"
     sodipodi:nodetypes="ccccc"
     style="fill:#0612dd;fill-opacity:1.0" />
  <path
     fill="#484DBB"
     fill-opacity="0.98039216"
     d="M968.827 798.668C971.365 800.705 973.767 802.787 976.343 804.805L975.363 805.761C972.733 803.791 969.92 802.07 967.374 800.139L968.827 798.668Z"
     id="path27"
     style="fill:#0612dd;fill-opacity:1.0" />
  <path
     fill="#212CB8"
     d="M246.135 806.799C247.866 806.005 250.181 804.977 251.936 804.273C252.672 805.624 253.04 805.629 253.925 806.761C252.052 807.084 249.962 807.446 248.097 807.704L246.135 806.799Z"
     id="path28" />
  <path
     fill="#8285AF"
     fill-opacity="0.89019608"
     d="M977.357 805.571L978.104 806.15C980.542 808.025 982.888 809.937 985.303 811.826L983.898 812.109C982.782 811.118 981.622 810.177 980.423 809.289C979.109 808.336 977.828 807.346 976.501 806.41L977.357 805.571Z"
     id="path29"
     style="fill:#0612dd;fill-opacity:1.0" />
  <path
     fill="#a6a9b6"
     fill-opacity="0.658824"
     d="m 923.366,815.053 c 2.03441,1.48649 4.68575,3.04668 6.391,4.497 -1.2288,0.42001 -5.5062,-2.59384 -7.368,-3.934 z"
     id="path30"
     sodipodi:nodetypes="cccc"
     style="fill:#0612dd;fill-opacity:1.0" />
  <path
     fill="#64C0C2"
     fill-opacity="0.82352942"
     d="M444.236 796.388L445.083 797.12C442.854 798.473 440.438 799.441 438.133 800.646L437.781 800.054C439.854 798.974 442.224 797.594 444.236 796.388Z"
     id="path32" />
  <path
     fill="#FCFCFD"
     fill-opacity="0.29411766"
     d="M438.133 800.646C433.649 803.842 431.65 802.648 437.781 800.054L438.133 800.646Z"
     id="path33" />
  <path
     fill="#212CB8"
     fill-opacity="0.98039216"
     d="M630.745 309.459C632.253 305.669 632.215 305.637 633.135 309.888C631.962 309.78 631.881 309.79 630.745 309.459Z"
     id="path34" />
  <path
     fill="#484DBB"
     fill-opacity="0.9137255"
     d="M246.135 806.799L248.097 807.704C247.494 807.807 243.845 808.497 243.464 808.19C243.488 808.129 243.513 808.068 243.537 808.006C243.996 807.542 245.503 807.014 246.135 806.799Z"
     id="path37" />
  <path
     fill="#FCFCFD"
     fill-opacity="0.48627451"
     d="M985.303 811.826C985.667 812.089 987.447 813.219 987.243 813.729C986.866 814.67 984.115 812.284 983.898 812.109L985.303 811.826Z"
     id="path38" />
  <path
     fill="#888EC8"
     fill-opacity="0.74509805"
     d="M976.343 804.805C976.681 805.06 977.019 805.316 977.357 805.571L976.501 806.41L975.363 805.761L976.343 804.805Z"
     id="path39"
     style="fill:#0612dd;fill-opacity:1.0" />
</svg>
